<?xml version="1.0" encoding="utf-8" standalone="no"?>
<!DOCTYPE svg PUBLIC "-//W3C//DTD SVG 1.1//EN"
  "http://www.w3.org/Graphics/SVG/1.1/DTD/svg11.dtd">
<!-- Created with matplotlib (http://matplotlib.org/) -->
<svg height="633pt" version="1.1" viewBox="0 0 921 633" width="921pt" xmlns="http://www.w3.org/2000/svg" xmlns:xlink="http://www.w3.org/1999/xlink">
 <defs>
  <style type="text/css">
*{stroke-linecap:butt;stroke-linejoin:round;stroke-miterlimit:100000;}
  </style>
 </defs>
 <g id="figure_1">
  <g id="patch_1">
   <path d="M 0 633.6 
L 921.6 633.6 
L 921.6 0 
L 0 0 
z
" style="fill:#ffffff;"/>
  </g>
  <g id="axes_1">
   <g id="patch_2">
    <path d="M 115.2 554.4 
L 829.44 554.4 
L 829.44 63.36 
L 115.2 63.36 
z
" style="fill:#ffffff;"/>
   </g>
   <g id="matplotlib.axis_1">
    <g id="xtick_1">
     <g id="line2d_1"/>
     <g id="text_1">
      <!-- Standard -->
      <defs>
       <path d="M 40 64.796875 
C 34.703125 67.703125 29.5 69.09375 24.203125 69.09375 
C 13.40625 69.09375 4.59375 61.09375 4.59375 51 
C 4.59375 28.5 37.09375 37 37.09375 17.59375 
C 37.09375 9.90625 30.796875 4 22.703125 4 
C 17.40625 4 13.09375 5.796875 5.5 11.296875 
L 5.5 5.09375 
C 11.5 1.09375 17.40625 -0.90625 23 -0.90625 
C 34.09375 -0.90625 42.796875 7.296875 42.796875 17.796875 
C 42.796875 41.703125 10.296875 33 10.296875 51.203125 
C 10.296875 58.59375 16.5 64.203125 24.703125 64.203125 
C 29.40625 64.203125 33 63 40 59 
z
" id="GillSansStd-Light-53"/>
       <path d="M 11 44.90625 
L 6.203125 44.90625 
L 6.203125 0 
L 11 0 
L 11 31.5 
C 15 38 19.203125 41.09375 25.703125 41.09375 
C 33.59375 41.09375 37.90625 35.703125 37.90625 25.59375 
L 37.90625 0 
L 42.703125 0 
L 42.703125 27.40625 
C 42.703125 39.5 35.59375 45.796875 26 45.796875 
C 19.5 45.796875 15.40625 43.40625 11.203125 37.09375 
L 11 37.09375 
z
" id="GillSansStd-Light-6e"/>
       <path d="M 37.296875 40.5 
C 32.90625 44.40625 30.09375 45.796875 27 45.796875 
C 22 45.796875 16.59375 41.5 11.296875 33.09375 
L 11.09375 33.09375 
L 11.09375 44.90625 
L 6.296875 44.90625 
L 6.296875 0 
L 11.09375 0 
L 11.09375 28.203125 
C 16 36.5 21.09375 41.09375 25.5 41.09375 
C 28 41.09375 30.203125 39.90625 34.5 36 
z
" id="GillSansStd-Light-72"/>
       <path d="M 15 59.796875 
L 13.5 59.796875 
L 10.203125 55.59375 
L 10.203125 44.90625 
L -1.90625 44.90625 
L -1.90625 41 
L 10.203125 41 
L 10.203125 8.703125 
C 10.203125 1.90625 15.59375 -0.90625 20.59375 -0.90625 
C 22.203125 -0.90625 24.09375 -0.5 25.796875 -0.09375 
C 27.5 0.40625 29 0.90625 29.90625 1.40625 
L 29.90625 6 
C 25.90625 4.203125 24.40625 3.796875 21.703125 3.796875 
C 15.09375 3.796875 15 6.59375 15 14.296875 
L 15 41 
L 27.59375 41 
L 27.59375 44.90625 
L 15 44.90625 
z
" id="GillSansStd-Light-74"/>
       <path d="M 44.90625 68.203125 
L 40.09375 68.203125 
L 40.09375 42.203125 
C 34.59375 44.90625 31.40625 45.796875 26.796875 45.796875 
C 13.703125 45.796875 4.09375 35.90625 4.09375 22.5 
C 4.09375 9.296875 14 -0.90625 26.796875 -0.90625 
C 31.90625 -0.90625 35.296875 0.203125 40.09375 3.5 
L 40.09375 0 
L 44.90625 0 
z
M 40.09375 7.90625 
C 35.5 4.796875 32.5 3.796875 28 3.796875 
C 17.203125 3.796875 9.203125 11.90625 9.203125 22.796875 
C 9.203125 33.5 16.59375 41.09375 27 41.09375 
C 31.703125 41.09375 35.203125 40 40.09375 36.90625 
z
" id="GillSansStd-Light-64"/>
       <path d="M 42.09375 7.796875 
C 39.703125 5.90625 36.796875 3.796875 35.703125 3.796875 
C 34.90625 3.796875 34.59375 4.296875 34.59375 6.09375 
L 34.59375 34.09375 
C 34.59375 43.5 26.203125 45.796875 20.59375 45.796875 
C 15.703125 45.796875 11.59375 44.40625 6.09375 41 
L 6.09375 36.09375 
C 11.40625 40.09375 15 41.796875 19.796875 41.796875 
C 26.5 41.796875 29.796875 38.59375 29.796875 32.59375 
L 29.796875 26.90625 
C 16.703125 26.296875 3.59375 22.203125 3.59375 10.5 
C 3.59375 4.203125 8.90625 -0.90625 15.703125 -0.90625 
C 20.5 -0.90625 24.796875 0.796875 29.796875 4.703125 
C 30.203125 0.203125 30.796875 -0.90625 33 -0.90625 
C 34.90625 -0.90625 36.796875 -0.203125 41.296875 3.203125 
L 42.09375 3.796875 
z
M 29.796875 8.90625 
C 25.09375 4.703125 21.59375 3.09375 17.296875 3.09375 
C 12.203125 3.09375 8.40625 6.296875 8.40625 10.5 
C 8.40625 18.296875 18.09375 23.40625 29.796875 22.90625 
z
" id="GillSansStd-Light-61"/>
      </defs>
      <g style="fill:#262626;" transform="translate(206.495 576.5125)scale(0.16 -0.16)">
       <use xlink:href="#GillSansStd-Light-53"/>
       <use x="46.899993896484375" xlink:href="#GillSansStd-Light-74"/>
       <use x="77.09999084472656" xlink:href="#GillSansStd-Light-61"/>
       <use x="119.79998779296875" xlink:href="#GillSansStd-Light-6e"/>
       <use x="168.7999725341797" xlink:href="#GillSansStd-Light-64"/>
       <use x="219.79995727539062" xlink:href="#GillSansStd-Light-61"/>
       <use x="262.4999542236328" xlink:href="#GillSansStd-Light-72"/>
       <use x="295.79994201660156" xlink:href="#GillSansStd-Light-64"/>
      </g>
     </g>
    </g>
    <g id="xtick_2">
     <g id="line2d_2"/>
     <g id="text_2">
      <!-- Difficult -->
      <defs>
       <path d="M 37.90625 43.59375 
C 32.90625 45.203125 29.90625 45.796875 26 45.796875 
C 13.203125 45.796875 4.203125 35.90625 4.203125 21.796875 
C 4.203125 8.203125 13 -0.90625 26.203125 -0.90625 
C 30.40625 -0.90625 33.59375 -0.296875 38.703125 1.40625 
L 38.703125 6.40625 
C 33.703125 4.40625 30.703125 3.796875 26.59375 3.796875 
C 16 3.796875 9.296875 11 9.296875 22.296875 
C 9.296875 33.5 16.203125 41.09375 26.203125 41.09375 
C 30 41.09375 32.703125 40.5 37.90625 38.296875 
z
" id="GillSansStd-Light-63"/>
       <path d="M 11.796875 44.90625 
L 7 44.90625 
L 7 0 
L 11.796875 0 
z
M 11.796875 68.203125 
L 7 68.203125 
L 7 60 
L 11.796875 60 
z
" id="GillSansStd-Light-69"/>
       <path d="M 11.796875 68.203125 
L 7 68.203125 
L 7 0 
L 11.796875 0 
z
" id="GillSansStd-Light-6c"/>
       <path d="M 37.90625 0 
L 42.703125 0 
L 42.703125 44.90625 
L 37.90625 44.90625 
L 37.90625 13.40625 
C 34 7.296875 30.40625 3.796875 23.296875 3.796875 
C 16.703125 3.796875 11 8.09375 11 17.203125 
L 11 44.90625 
L 6.203125 44.90625 
L 6.203125 17.09375 
C 6.203125 3.703125 15.203125 -0.90625 22.90625 -0.90625 
C 29.90625 -0.90625 33.59375 1.59375 37.703125 7.40625 
L 37.90625 7.40625 
z
" id="GillSansStd-Light-75"/>
       <path d="M 33.203125 67.203125 
C 29.703125 68.59375 27.703125 69.09375 25 69.09375 
C 17.5 69.09375 9.40625 63.90625 9.40625 52.296875 
L 9.40625 44.90625 
L 1.09375 44.90625 
L 1.09375 41 
L 9.40625 41 
L 9.40625 0 
L 14.203125 0 
L 14.203125 41 
L 22.90625 41 
L 22.90625 44.90625 
L 14.203125 44.90625 
L 14.203125 50.5 
C 14.203125 60 17.59375 64.40625 25.09375 64.40625 
C 27.59375 64.40625 29.40625 64 33.203125 62.703125 
z
" id="GillSansStd-Light-66"/>
       <path d="M 7.90625 68.203125 
L 7.90625 0 
L 32.703125 0 
C 59.703125 0 69 18.296875 69 34.09375 
C 69 49.09375 60.796875 68.203125 31.796875 68.203125 
z
M 13.203125 63.796875 
L 32.09375 63.796875 
C 50.59375 63.796875 63.296875 51.59375 63.296875 34.09375 
C 63.296875 14.90625 48.796875 4.40625 32.40625 4.40625 
L 13.203125 4.40625 
z
" id="GillSansStd-Light-44"/>
      </defs>
      <g style="fill:#262626;" transform="translate(448.37625 576.5125)scale(0.16 -0.16)">
       <use xlink:href="#GillSansStd-Light-44"/>
       <use x="73.99998474121094" xlink:href="#GillSansStd-Light-69"/>
       <use x="92.79997253417969" xlink:href="#GillSansStd-Light-66"/>
       <use x="116.79995727539062" xlink:href="#GillSansStd-Light-66"/>
       <use x="140.79994201660156" xlink:href="#GillSansStd-Light-69"/>
       <use x="159.5999298095703" xlink:href="#GillSansStd-Light-63"/>
       <use x="201.2999267578125" xlink:href="#GillSansStd-Light-75"/>
       <use x="250.29991149902344" xlink:href="#GillSansStd-Light-6c"/>
       <use x="269.0998992919922" xlink:href="#GillSansStd-Light-74"/>
      </g>
     </g>
    </g>
    <g id="xtick_3">
     <g id="line2d_3"/>
     <g id="text_3">
      <!-- Impossible -->
      <defs>
       <path d="M 44.5 24.09375 
C 44.5 39.09375 34.203125 45.796875 24.59375 45.796875 
C 12.703125 45.796875 4 36.203125 4 23 
C 4 9.09375 13.40625 -0.90625 26.40625 -0.90625 
C 32.90625 -0.90625 38.40625 1 43.703125 5.09375 
L 43.703125 10.5 
C 37.90625 5.796875 33 3.796875 27 3.796875 
C 16.796875 3.796875 7.703125 12.59375 9.09375 24.09375 
z
M 9.703125 28 
C 11.40625 36.203125 17.203125 41.09375 24.59375 41.09375 
C 32.296875 41.09375 37.09375 36.796875 38.796875 28 
z
" id="GillSansStd-Light-65"/>
       <path d="M 30.90625 42 
C 26.40625 44.59375 22.796875 45.796875 18.90625 45.796875 
C 10.796875 45.796875 4.40625 40.40625 4.40625 33.5 
C 4.40625 19.09375 27.703125 22.296875 27.703125 11.59375 
C 27.703125 7 23.703125 3.796875 18.203125 3.796875 
C 13.90625 3.796875 10 4.90625 4.09375 7.90625 
L 4.09375 3.203125 
C 8.703125 0.40625 13 -0.90625 17.59375 -0.90625 
C 25.90625 -0.90625 32.296875 4.5 32.296875 11.5 
C 32.296875 27.09375 9 23 9 33.796875 
C 9 38.09375 13.203125 41.40625 18.59375 41.40625 
C 22.59375 41.40625 25.90625 40.09375 30.90625 36.796875 
z
" id="GillSansStd-Light-73"/>
       <path d="M 11.09375 44.90625 
L 6.296875 44.90625 
L 6.296875 -23 
L 11.09375 -23 
L 11.09375 2.5 
C 16.203125 0 19.90625 -0.90625 24.40625 -0.90625 
C 37 -0.90625 46.796875 9.40625 46.796875 22.59375 
C 46.796875 36 37.40625 45.796875 24.59375 45.796875 
C 19.90625 45.796875 16.203125 44.90625 11.09375 42.40625 
z
M 11.09375 37.796875 
C 15.796875 40.296875 18.90625 41.09375 22.90625 41.09375 
C 33.703125 41.09375 41.5 33.203125 41.5 22.203125 
C 41.5 11.203125 34.296875 3.796875 23.5 3.796875 
C 19 3.796875 15.703125 4.703125 11.09375 7.203125 
z
" id="GillSansStd-Light-70"/>
       <path d="M 13.09375 68.203125 
L 7.796875 68.203125 
L 7.796875 0 
L 13.09375 0 
z
" id="GillSansStd-Light-49"/>
       <path d="M 10.796875 44.90625 
L 6 44.90625 
L 6 0 
L 10.796875 0 
L 10.796875 31.5 
C 15 38.40625 18.796875 41.09375 24.296875 41.09375 
C 30.59375 41.09375 36.09375 36.703125 36.09375 25.59375 
L 36.09375 0 
L 40.90625 0 
L 40.90625 30.59375 
C 45.40625 38.09375 49 41.09375 54.5 41.09375 
C 62.40625 41.09375 66.203125 34.5 66.203125 25.5 
L 66.203125 0 
L 71 0 
L 71 27.59375 
C 71 38.59375 64.796875 45.796875 55.40625 45.796875 
C 48.90625 45.796875 44.296875 42.5 39.796875 35 
C 36.90625 42.296875 32.296875 45.796875 25.296875 45.796875 
C 19.203125 45.796875 15 43.296875 11 37 
L 10.796875 37 
z
" id="GillSansStd-Light-6d"/>
       <path d="M 6.203125 2.5 
C 12.296875 0.09375 16.703125 -0.90625 22.09375 -0.90625 
C 37.296875 -0.90625 47.203125 8.796875 47.203125 23.90625 
C 47.203125 36.796875 39 45.796875 27.203125 45.796875 
C 20 45.796875 15.703125 43.09375 11 38.5 
L 11 68.203125 
L 6.203125 68.203125 
z
M 11 33.09375 
C 16.40625 39.203125 21 41.796875 26.59375 41.796875 
C 35.59375 41.796875 42.09375 34.203125 42.09375 23.59375 
C 42.09375 12.09375 33.703125 3.796875 22 3.796875 
C 18.5 3.796875 15 4.40625 11 5.90625 
z
" id="GillSansStd-Light-62"/>
       <path d="M 49.90625 22.40625 
C 49.90625 35.796875 40.203125 45.796875 27.09375 45.796875 
C 14 45.796875 4.203125 35.796875 4.203125 22.40625 
C 4.203125 9.09375 14 -0.90625 27.09375 -0.90625 
C 40.203125 -0.90625 49.90625 9.09375 49.90625 22.40625 
M 44.796875 22.40625 
C 44.796875 11.703125 37.203125 3.796875 27.09375 3.796875 
C 16.90625 3.796875 9.296875 11.703125 9.296875 22.40625 
C 9.296875 33.203125 16.90625 41.09375 27.09375 41.09375 
C 37.203125 41.09375 44.796875 33.09375 44.796875 22.40625 
" id="GillSansStd-Light-6f"/>
      </defs>
      <g style="fill:#262626;" transform="translate(677.5675 576.5125)scale(0.16 -0.16)">
       <use xlink:href="#GillSansStd-Light-49"/>
       <use x="20.79998779296875" xlink:href="#GillSansStd-Light-6d"/>
       <use x="97.89997863769531" xlink:href="#GillSansStd-Light-70"/>
       <use x="148.89996337890625" xlink:href="#GillSansStd-Light-6f"/>
       <use x="203.09996032714844" xlink:href="#GillSansStd-Light-73"/>
       <use x="238.4999542236328" xlink:href="#GillSansStd-Light-73"/>
       <use x="273.8999481201172" xlink:href="#GillSansStd-Light-69"/>
       <use x="292.69993591308594" xlink:href="#GillSansStd-Light-62"/>
       <use x="343.6999206542969" xlink:href="#GillSansStd-Light-6c"/>
       <use x="362.4999084472656" xlink:href="#GillSansStd-Light-65"/>
      </g>
     </g>
    </g>
    <g id="text_4">
     <!-- Synthesis difficulty -->
     <defs>
      <path id="GillSansStd-20"/>
      <path d="M 16.703125 54.203125 
L 0 37.90625 
L 0 36.90625 
L 7.796875 36.90625 
L 7.796875 13.203125 
C 7.796875 5.09375 12.703125 -0.90625 22.40625 -0.90625 
C 25.296875 -0.90625 30.09375 0.40625 33.203125 2.09375 
L 33.203125 10.40625 
C 29.59375 8.203125 26.296875 7.09375 23.09375 7.09375 
C 20.5 7.09375 16.703125 8.59375 16.703125 13.90625 
L 16.703125 36.90625 
L 30.90625 36.90625 
L 30.90625 44.90625 
L 16.703125 44.90625 
z
" id="GillSansStd-74"/>
      <path d="M 15.40625 68.203125 
L 6.5 68.203125 
L 6.5 0 
L 15.40625 0 
z
" id="GillSansStd-6c"/>
      <path d="M 43.796875 44.90625 
L 33.796875 44.90625 
L 22.203125 19.59375 
L 10.09375 44.90625 
L 0 44.90625 
L 17.40625 9.59375 
L 2.09375 -23 
L 12 -23 
z
" id="GillSansStd-79"/>
      <path d="M 39.296875 42.703125 
C 35 44.59375 31.5 45.796875 26.296875 45.796875 
C 12.703125 45.796875 4.09375 36.40625 4.09375 21.59375 
C 4.09375 8.40625 13.5 -0.90625 26.90625 -0.90625 
C 31.59375 -0.90625 37.296875 0.296875 40.296875 1.703125 
L 40.296875 10.5 
C 35.796875 8.5 32.203125 7.5 28.40625 7.5 
C 19.203125 7.5 13.203125 13.09375 13.203125 22.40625 
C 13.203125 31.5 18.796875 37.59375 26.90625 37.59375 
C 30.796875 37.59375 34.203125 36.59375 39.296875 33.203125 
z
" id="GillSansStd-63"/>
      <path d="M 43.703125 0 
L 43.703125 44.90625 
L 34.796875 44.90625 
L 34.796875 12.796875 
C 31.90625 8.703125 28.09375 6.5 24.09375 6.5 
C 18 6.5 14.90625 10.09375 14.90625 16.40625 
L 14.90625 44.90625 
L 6 44.90625 
L 6 17 
C 6 5.59375 12.40625 -0.90625 21.5 -0.90625 
C 25.90625 -0.90625 31.09375 1.703125 34.796875 5.703125 
L 34.796875 0 
z
" id="GillSansStd-75"/>
      <path d="M 32.40625 42.09375 
C 27.703125 44.59375 23.40625 45.796875 19.203125 45.796875 
C 10.203125 45.796875 4.40625 41.203125 4.40625 33.59375 
C 4.40625 21.5 25.40625 18.203125 25.40625 12 
C 25.40625 8.796875 22.40625 7.09375 18.796875 6.90625 
C 15.203125 6.90625 9.90625 8.796875 4.09375 12.796875 
L 4.09375 3.203125 
C 9.90625 0.203125 14.203125 -0.90625 19.703125 -0.90625 
C 28.203125 -0.90625 34.5 4.40625 34.5 12.296875 
C 34.5 16.90625 31.796875 20 24.40625 24.90625 
C 16.5 29.5 13.5 31.90625 13.5 33.90625 
C 13.5 36.296875 15.796875 38 19.40625 38 
C 22.703125 38 27.40625 36.59375 32.40625 33.296875 
z
" id="GillSansStd-73"/>
      <path d="M 45.09375 68.203125 
L 36.203125 68.203125 
L 36.203125 44 
C 32.59375 45.296875 29.796875 45.796875 26.796875 45.796875 
C 13.703125 45.796875 4.40625 36.5 4.40625 23.5 
C 4.40625 9.09375 12.796875 0 26.203125 0 
L 45.09375 0 
z
M 36.203125 7.5 
L 27.203125 7.5 
C 16.90625 7.5 13.5 13.796875 13.5 22.203125 
C 13.5 31.59375 19.296875 37.796875 27.90625 37.796875 
C 30.90625 37.796875 33.203125 37.296875 36.203125 36.09375 
z
" id="GillSansStd-64"/>
      <path d="M 39.90625 64.296875 
C 35.09375 67.5 29.90625 69.09375 24.703125 69.09375 
C 12.203125 69.09375 4 62 4 50.90625 
C 4 32.203125 33.5 30.59375 33.5 16.5 
C 33.5 12.703125 30 7.90625 22.40625 7.90625 
C 15.703125 7.90625 9.40625 11.40625 4.40625 17.796875 
L 4.40625 5.40625 
C 10.09375 1.09375 16.09375 -0.90625 23.5 -0.90625 
C 34.5 -0.90625 42.59375 6.90625 42.59375 17.59375 
C 42.59375 39.296875 13.09375 39.09375 13.09375 52.203125 
C 13.09375 57 17.59375 60.296875 23.90625 60.296875 
C 28.5 60.296875 34.09375 58.703125 39.90625 53.203125 
z
" id="GillSansStd-53"/>
      <path d="M 43.796875 13 
C 38.59375 9.59375 33.5 7.59375 28.09375 7.59375 
C 19.5 7.59375 14.40625 12.203125 13 21.09375 
L 44.59375 21.09375 
C 44.59375 37.703125 37 45.796875 25.09375 45.796875 
C 12.703125 45.796875 4.09375 36.59375 4.09375 23 
C 4.09375 10.59375 11.90625 -0.90625 25.90625 -0.90625 
C 33.5 -0.90625 38.40625 0.796875 43.796875 4.40625 
z
M 13.203125 27 
C 14.40625 34.09375 18.5 38.09375 25.296875 38.09375 
C 31.59375 38.09375 35.5 33.796875 35.796875 27 
z
" id="GillSansStd-65"/>
      <path d="M 15 68.203125 
L 6.09375 68.203125 
L 6.09375 0 
L 15 0 
L 15 32.203125 
C 19.203125 36.90625 22.296875 38.703125 26.203125 38.703125 
C 31.59375 38.703125 35 34.40625 35 27.796875 
L 35 0 
L 43.90625 0 
L 43.90625 27.5 
C 43.90625 39.796875 37.40625 45.796875 28.59375 45.796875 
C 23.59375 45.796875 18.59375 43.296875 15.203125 39 
L 15 39 
z
" id="GillSansStd-68"/>
      <path d="M 15 44.90625 
L 6.09375 44.90625 
L 6.09375 0 
L 15 0 
L 15 32.203125 
C 19.203125 36.90625 22.296875 38.703125 26.203125 38.703125 
C 31.59375 38.703125 35 34.40625 35 27.796875 
L 35 0 
L 43.90625 0 
L 43.90625 27.703125 
C 43.90625 40 37.09375 45.796875 28.59375 45.796875 
C 23.59375 45.796875 18.59375 43.296875 15.203125 39 
L 15 39 
z
" id="GillSansStd-6e"/>
      <path d="M 15.40625 44.90625 
L 6.5 44.90625 
L 6.5 0 
L 15.40625 0 
z
M 16.296875 58.5 
C 16.296875 61.40625 13.90625 63.796875 11 63.796875 
C 8.09375 63.796875 5.703125 61.40625 5.703125 58.5 
C 5.703125 55.59375 8.09375 53.203125 11 53.203125 
C 13.90625 53.203125 16.296875 55.59375 16.296875 58.5 
" id="GillSansStd-69"/>
      <path d="M 29.59375 68.203125 
C 21.796875 70.40625 16.703125 68.59375 12.90625 64.796875 
C 9.296875 61.203125 7.203125 57 7.203125 48.203125 
L 7.203125 44.90625 
L 0.90625 44.90625 
L 0.90625 36.90625 
L 7.203125 36.90625 
L 7.203125 0 
L 16.09375 0 
L 16.09375 36.90625 
L 24.203125 36.90625 
L 24.203125 44.90625 
L 16.09375 44.90625 
L 16.09375 49.203125 
C 16.09375 56.09375 18.40625 60.296875 25.59375 60.296875 
C 27.203125 60.296875 28.09375 60.09375 29.59375 59.5 
z
" id="GillSansStd-66"/>
     </defs>
     <g style="fill:#262626;" transform="translate(407.630375 597.584)scale(0.17600000000000002 -0.17600000000000002)">
      <use xlink:href="#GillSansStd-53"/>
      <use x="45.79998779296875" xlink:href="#GillSansStd-79"/>
      <use x="89.5999755859375" xlink:href="#GillSansStd-6e"/>
      <use x="139.59996032714844" xlink:href="#GillSansStd-74"/>
      <use x="172.8999481201172" xlink:href="#GillSansStd-68"/>
      <use x="222.89993286132812" xlink:href="#GillSansStd-65"/>
      <use x="270.7999267578125" xlink:href="#GillSansStd-73"/>
      <use x="309.29991149902344" xlink:href="#GillSansStd-69"/>
      <use x="331.1999053955078" xlink:href="#GillSansStd-73"/>
      <use x="369.69989013671875" xlink:href="#GillSansStd-20"/>
      <use x="397.4998779296875" xlink:href="#GillSansStd-64"/>
      <use x="448.49986267089844" xlink:href="#GillSansStd-69"/>
      <use x="470.3998565673828" xlink:href="#GillSansStd-66"/>
      <use x="495.39984130859375" xlink:href="#GillSansStd-66"/>
      <use x="520.3998260498047" xlink:href="#GillSansStd-69"/>
      <use x="542.2998199462891" xlink:href="#GillSansStd-63"/>
      <use x="586.0998077392578" xlink:href="#GillSansStd-75"/>
      <use x="636.0997924804688" xlink:href="#GillSansStd-6c"/>
      <use x="657.9997863769531" xlink:href="#GillSansStd-74"/>
      <use x="691.2997741699219" xlink:href="#GillSansStd-79"/>
     </g>
    </g>
   </g>
   <g id="matplotlib.axis_2">
    <g id="ytick_1">
     <g id="line2d_4"/>
     <g id="text_5">
      <!-- 0 -->
      <defs>
       <path d="M 46.796875 33.796875 
C 46.796875 46.296875 44.09375 57 37.296875 63.796875 
C 34.09375 67 29.796875 69.09375 25 69.09375 
C 20.09375 69.09375 15.5 66.59375 12.5 63.59375 
C 6.09375 57.203125 3.203125 47.703125 3.203125 32.90625 
C 3.203125 12.59375 12.296875 -0.90625 25.203125 -0.90625 
C 36.90625 -0.90625 46.796875 11.796875 46.796875 33.796875 
M 41.703125 34.296875 
C 41.703125 18.296875 35.90625 3.90625 24.796875 3.90625 
C 15 3.90625 8.296875 16.203125 8.296875 34.09375 
C 8.296875 51.796875 15.203125 64.296875 25 64.296875 
C 36.5 64.296875 41.703125 49 41.703125 34.296875 
" id="GillSansStd-Light-30"/>
      </defs>
      <g style="fill:#262626;" transform="translate(96.0 558.01625)scale(0.16 -0.16)">
       <use xlink:href="#GillSansStd-Light-30"/>
      </g>
     </g>
    </g>
    <g id="ytick_2">
     <g id="line2d_5"/>
     <g id="text_6">
      <!-- 100 -->
      <defs>
       <path d="M 27.5 68.203125 
L 22.40625 68.203125 
L 22.40625 0 
L 27.5 0 
z
" id="GillSansStd-Light-31"/>
      </defs>
      <g style="fill:#262626;" transform="translate(80.0 459.80825)scale(0.16 -0.16)">
       <use xlink:href="#GillSansStd-Light-31"/>
       <use x="49.99998474121094" xlink:href="#GillSansStd-Light-30"/>
       <use x="99.99996948242188" xlink:href="#GillSansStd-Light-30"/>
      </g>
     </g>
    </g>
    <g id="ytick_3">
     <g id="line2d_6"/>
     <g id="text_7">
      <!-- 200 -->
      <defs>
       <path d="M 4.5 56.90625 
C 10.90625 62.5 14.703125 64.296875 20 64.296875 
C 28.703125 64.296875 35.296875 57.90625 35.296875 49.40625 
C 35.296875 39.40625 28.09375 23.5 3.703125 0 
L 47 0 
L 47 4.703125 
L 15.296875 4.703125 
C 33.40625 25.296875 40.40625 39.09375 40.40625 49.5 
C 40.40625 60.5 31.59375 69.09375 20.40625 69.09375 
C 14.703125 69.09375 9.5 67 4.5 62.90625 
z
" id="GillSansStd-Light-32"/>
      </defs>
      <g style="fill:#262626;" transform="translate(80.0 361.60025)scale(0.16 -0.16)">
       <use xlink:href="#GillSansStd-Light-32"/>
       <use x="49.99998474121094" xlink:href="#GillSansStd-Light-30"/>
       <use x="99.99996948242188" xlink:href="#GillSansStd-Light-30"/>
      </g>
     </g>
    </g>
    <g id="ytick_4">
     <g id="line2d_7"/>
     <g id="text_8">
      <!-- 300 -->
      <defs>
       <path d="M 7.40625 59.796875 
C 12 62.90625 16.5 64.296875 21.40625 64.296875 
C 30.296875 64.296875 37 58.796875 37 51.5 
C 37 44.796875 31 38.296875 20.203125 38.296875 
L 20.203125 33.5 
C 31.296875 33.703125 37.796875 27.59375 37.796875 18.40625 
C 37.796875 9.703125 31.40625 3.90625 21.90625 3.90625 
C 16.5 3.90625 11.5 5 6.796875 7.203125 
L 6.796875 2.5 
C 11.09375 0.40625 17.203125 -0.90625 22.5 -0.90625 
C 31.796875 -0.90625 42.90625 5 42.90625 18.703125 
C 42.90625 26.296875 39.09375 33 29.703125 36.09375 
L 29.703125 36.296875 
C 38.296875 38.90625 42.09375 45.296875 42.09375 51.90625 
C 42.09375 62 33.703125 69.09375 21.796875 69.09375 
C 16.09375 69.09375 11.5 67.703125 7.40625 64.703125 
z
" id="GillSansStd-Light-33"/>
      </defs>
      <g style="fill:#262626;" transform="translate(80.0 263.39225)scale(0.16 -0.16)">
       <use xlink:href="#GillSansStd-Light-33"/>
       <use x="49.99998474121094" xlink:href="#GillSansStd-Light-30"/>
       <use x="99.99996948242188" xlink:href="#GillSansStd-Light-30"/>
      </g>
     </g>
    </g>
    <g id="ytick_5">
     <g id="line2d_8"/>
     <g id="text_9">
      <!-- 400 -->
      <defs>
       <path d="M 37.59375 69.09375 
L 35.703125 69.09375 
L 1.40625 28 
L 1.40625 26.296875 
L 32.5 26.296875 
L 32.5 0 
L 37.59375 0 
L 37.59375 26.296875 
L 47.09375 26.296875 
L 47.09375 30.40625 
L 37.59375 30.40625 
z
M 32.5 30.40625 
L 8.5 30.40625 
L 32.296875 59.203125 
L 32.5 59.203125 
z
" id="GillSansStd-Light-34"/>
      </defs>
      <g style="fill:#262626;" transform="translate(80.0 165.18425)scale(0.16 -0.16)">
       <use xlink:href="#GillSansStd-Light-34"/>
       <use x="49.99998474121094" xlink:href="#GillSansStd-Light-30"/>
       <use x="99.99996948242188" xlink:href="#GillSansStd-Light-30"/>
      </g>
     </g>
    </g>
    <g id="ytick_6">
     <g id="line2d_9"/>
     <g id="text_10">
      <!-- 500 -->
      <defs>
       <path d="M 38.59375 68.203125 
L 9.703125 68.203125 
L 9.703125 36.40625 
C 23.90625 40.59375 37.5 35.59375 37.5 20.796875 
C 37.5 11 30.5 3.90625 20.703125 3.90625 
C 15.796875 3.90625 10.90625 5.5 4.09375 9.40625 
L 4.09375 3.59375 
C 10 0.5 15.09375 -0.90625 20.5 -0.90625 
C 33.203125 -0.90625 42.59375 8.5 42.59375 21.203125 
C 42.59375 36.296875 30.5 44.296875 14.5 41.90625 
L 14.5 63.5 
L 38.59375 63.5 
z
" id="GillSansStd-Light-35"/>
      </defs>
      <g style="fill:#262626;" transform="translate(80.0 66.97625)scale(0.16 -0.16)">
       <use xlink:href="#GillSansStd-Light-35"/>
       <use x="49.99998474121094" xlink:href="#GillSansStd-Light-30"/>
       <use x="99.99996948242188" xlink:href="#GillSansStd-Light-30"/>
      </g>
     </g>
    </g>
    <g id="text_11">
     <!-- Number of fragments -->
     <defs>
      <path d="M 42.09375 44.90625 
L 23.59375 44.90625 
C 11.5 44.90625 4 39 4 29.40625 
C 4 26.09375 4.796875 23.296875 6.40625 21 
C 8.09375 18.59375 10.59375 16.703125 13.90625 15.296875 
L 13.90625 15.09375 
C 9.59375 14.09375 6.796875 11.59375 6.796875 8.703125 
C 6.796875 6.703125 8.203125 4.90625 11.296875 3 
C 3.5 1.09375 0 -2.796875 0 -9.40625 
C 0 -17.296875 8.59375 -23 20.703125 -23 
C 34 -23 41.90625 -17.59375 41.90625 -8.703125 
C 41.90625 -3 38.5 1.90625 28.90625 3.796875 
C 19.90625 5.59375 15.203125 7.09375 15.203125 9.59375 
C 15.203125 14.90625 27.40625 11.703125 33.40625 18.09375 
C 35.5 20.203125 37.59375 24.5 37.59375 28.203125 
C 37.59375 32 36.40625 34.5 32.90625 38 
L 42.09375 38 
z
M 29.59375 29.296875 
C 29.59375 24.40625 26 20.90625 21 20.90625 
C 15.59375 20.90625 12 24.203125 12 29.09375 
C 12 33.5 16 37.203125 20.90625 37.203125 
C 25.59375 37.203125 29.59375 33.59375 29.59375 29.296875 
M 33.296875 -9.40625 
C 33.296875 -13.5 28.703125 -15.90625 20.90625 -15.90625 
C 12.796875 -15.90625 8.40625 -13.5 8.40625 -9 
C 8.40625 -5 12.59375 -2.203125 18.59375 -2.203125 
C 24.09375 -2.203125 33.296875 -3.703125 33.296875 -9.40625 
" id="GillSansStd-67"/>
      <path d="M 5.90625 44.90625 
L 5.90625 0 
L 14.796875 0 
L 14.796875 32.59375 
C 18.5 36.90625 21.5 38.296875 26 38.296875 
C 30.40625 38.296875 34.09375 35.203125 34.09375 27.90625 
L 34.09375 0 
L 43 0 
L 43 32.59375 
C 46.203125 35.90625 50.09375 38.40625 53 38.296875 
C 58.09375 38.296875 62.296875 34.59375 62.296875 27.796875 
L 62.296875 0 
L 71.203125 0 
L 71.203125 28.203125 
C 71.203125 38.796875 65.40625 45.796875 56.296875 45.796875 
C 49.90625 45.796875 45.203125 42.09375 41.296875 37.703125 
C 38.296875 43 33.59375 45.796875 27.90625 45.796875 
C 23.703125 45.796875 19.40625 43.59375 14.796875 39 
L 14.796875 44.90625 
z
" id="GillSansStd-6d"/>
      <path d="M 27.296875 45.796875 
C 13.90625 45.796875 3.59375 35.796875 3.59375 22.90625 
C 3.59375 9.09375 13.5 -0.90625 27.296875 -0.90625 
C 41.703125 -0.90625 51.59375 8.703125 51.59375 22.90625 
C 51.59375 36.203125 41.40625 45.796875 27.296875 45.796875 
M 27.203125 37.796875 
C 36.09375 37.796875 42.5 31.5 42.5 22.796875 
C 42.5 13.09375 36.59375 7.09375 27.203125 7.09375 
C 18.59375 7.09375 12.703125 13.40625 12.703125 22.90625 
C 12.703125 31.5 18.796875 37.796875 27.203125 37.796875 
" id="GillSansStd-6f"/>
      <path d="M 41.09375 8 
C 39.09375 6.5 37.296875 5.59375 36.40625 5.59375 
C 35.296875 5.59375 34.703125 6.203125 34.703125 7.90625 
L 34.703125 31 
C 34.703125 41.203125 27.5 45.796875 18.40625 45.796875 
C 11.90625 45.796875 7 43.796875 3.5 39.703125 
L 3.5 30 
C 7.796875 35.09375 12.796875 37.40625 17.703125 37.40625 
C 23.09375 37.40625 25.796875 35.09375 25.796875 29.5 
L 25.796875 27.09375 
L 17.90625 24.296875 
C 10.703125 21.703125 2.59375 19 2.59375 10.09375 
C 2.59375 4.296875 7 -0.90625 13.59375 -0.90625 
C 17.703125 -0.90625 21.796875 0.59375 25.703125 3.703125 
C 26.5 0.5 28.59375 -0.90625 32.5 -0.90625 
C 35.296875 -0.90625 37 -0.09375 41.09375 2.59375 
z
M 25.796875 9.09375 
C 23.40625 6.796875 20.796875 5.40625 18 5.40625 
C 14.296875 5.40625 11.59375 8 11.59375 11.703125 
C 11.59375 17 18.203125 19.59375 25.796875 22.203125 
z
" id="GillSansStd-61"/>
      <path d="M 14.796875 68.203125 
L 5.90625 68.203125 
L 5.90625 2.5 
C 10.296875 0.40625 16.703125 -0.90625 22.59375 -0.90625 
C 37.59375 -0.90625 46.59375 8.203125 46.59375 23.40625 
C 46.59375 36.296875 38.40625 45.796875 27.203125 45.796875 
C 22.703125 45.796875 18.703125 44.5 14.796875 41.703125 
z
M 14.796875 33.203125 
C 18.59375 36.59375 21.296875 37.796875 25 37.796875 
C 32.5 37.796875 37.5 31.59375 37.5 22.09375 
C 37.5 13.59375 31.796875 7.5 23.796875 7.5 
C 21.203125 7.5 17.40625 8.09375 14.796875 8.90625 
z
" id="GillSansStd-62"/>
      <path d="M 70.59375 68.203125 
L 61.40625 68.203125 
L 61.40625 15.40625 
L 15.203125 68.203125 
L 7.40625 68.203125 
L 7.40625 0 
L 16.59375 0 
L 16.59375 52.5 
L 62.203125 0 
L 70.59375 0 
z
" id="GillSansStd-4e"/>
      <path d="M 6.90625 44.90625 
L 6.90625 0 
L 15.796875 0 
L 15.796875 23.5 
C 15.796875 31.203125 20.59375 37.296875 26.703125 37.296875 
C 28.796875 37.296875 32.296875 35.5 35 32.90625 
L 39.703125 40.59375 
C 36 44.09375 32.59375 45.796875 29 45.796875 
C 24.796875 45.796875 20.5 42.5 16 34.59375 
L 15.796875 34.59375 
L 15.796875 44.90625 
z
" id="GillSansStd-72"/>
     </defs>
     <g style="fill:#262626;" transform="translate(70.952 385.90475)rotate(-90.0)scale(0.17600000000000002 -0.17600000000000002)">
      <use xlink:href="#GillSansStd-4e"/>
      <use x="78.09999084472656" xlink:href="#GillSansStd-75"/>
      <use x="128.0999755859375" xlink:href="#GillSansStd-6d"/>
      <use x="205.19996643066406" xlink:href="#GillSansStd-62"/>
      <use x="255.199951171875" xlink:href="#GillSansStd-65"/>
      <use x="303.0999450683594" xlink:href="#GillSansStd-72"/>
      <use x="342.69993591308594" xlink:href="#GillSansStd-20"/>
      <use x="370.4999237060547" xlink:href="#GillSansStd-6f"/>
      <use x="425.6999206542969" xlink:href="#GillSansStd-66"/>
      <use x="450.6999053955078" xlink:href="#GillSansStd-20"/>
      <use x="478.49989318847656" xlink:href="#GillSansStd-66"/>
      <use x="503.4998779296875" xlink:href="#GillSansStd-72"/>
      <use x="543.0998687744141" xlink:href="#GillSansStd-61"/>
      <use x="585.7998657226562" xlink:href="#GillSansStd-67"/>
      <use x="628.4998626708984" xlink:href="#GillSansStd-6d"/>
      <use x="705.599853515625" xlink:href="#GillSansStd-65"/>
      <use x="753.4998474121094" xlink:href="#GillSansStd-6e"/>
      <use x="803.4998321533203" xlink:href="#GillSansStd-74"/>
      <use x="836.7998199462891" xlink:href="#GillSansStd-73"/>
     </g>
    </g>
   </g>
   <g id="patch_3">
    <path clip-path="url(#pefdd3e85a4)" d="M 139.008 554.4 
L 329.472 554.4 
L 329.472 74.16288 
L 139.008 74.16288 
z
" style="fill:#5875a4;stroke:#000000;stroke-linejoin:miter;stroke-width:0.48;"/>
   </g>
   <g id="patch_4">
    <path clip-path="url(#pefdd3e85a4)" d="M 377.088 554.4 
L 567.552 554.4 
L 567.552 549.4896 
L 377.088 549.4896 
z
" style="fill:#5f9e6e;stroke:#000000;stroke-linejoin:miter;stroke-width:0.48;"/>
   </g>
   <g id="patch_5">
    <path clip-path="url(#pefdd3e85a4)" d="M 615.168 554.4 
L 805.632 554.4 
L 805.632 552.43584 
L 615.168 552.43584 
z
" style="fill:#b55d60;stroke:#000000;stroke-linejoin:miter;stroke-width:0.48;"/>
   </g>
   <g id="patch_6">
    <path d="M 115.2 554.4 
L 829.44 554.4 
" style="fill:none;stroke:#262626;stroke-linecap:square;stroke-linejoin:miter;stroke-width:1.25;"/>
   </g>
   <g id="patch_7">
    <path d="M 115.2 554.4 
L 115.2 63.36 
" style="fill:none;stroke:#262626;stroke-linecap:square;stroke-linejoin:miter;stroke-width:1.25;"/>
   </g>
  </g>
 </g>
 <defs>
  <clipPath id="pefdd3e85a4">
   <rect height="491.04" width="714.24" x="115.2" y="63.36"/>
  </clipPath>
 </defs>
</svg>
