<?xml version="1.0" encoding="UTF-8" standalone="no"?>
<!-- Created with Inkscape (http://www.inkscape.org/) -->

<svg
   xmlns:dc="http://purl.org/dc/elements/1.1/"
   xmlns:cc="http://creativecommons.org/ns#"
   xmlns:rdf="http://www.w3.org/1999/02/22-rdf-syntax-ns#"
   xmlns:svg="http://www.w3.org/2000/svg"
   xmlns="http://www.w3.org/2000/svg"
   xmlns:sodipodi="http://sodipodi.sourceforge.net/DTD/sodipodi-0.dtd"
   xmlns:inkscape="http://www.inkscape.org/namespaces/inkscape"
   width="210mm"
   height="297mm"
   viewBox="0 0 210 297"
   version="1.1"
   id="svg8"
   inkscape:version="0.92.2 5c3e80d, 2017-08-06"
   sodipodi:docname="wufoo_logo.svg">
  <defs
     id="defs2" />
  <sodipodi:namedview
     id="base"
     pagecolor="#ffffff"
     bordercolor="#666666"
     borderopacity="1.0"
     inkscape:pageopacity="0.0"
     inkscape:pageshadow="2"
     inkscape:zoom="0.7"
     inkscape:cx="377.92765"
     inkscape:cy="620.80646"
     inkscape:document-units="mm"
     inkscape:current-layer="layer1"
     showgrid="false"
     inkscape:window-width="1020"
     inkscape:window-height="729"
     inkscape:window-x="0"
     inkscape:window-y="18"
     inkscape:window-maximized="0" />
  <metadata
     id="metadata5">
    <rdf:RDF>
      <cc:Work
         rdf:about="">
        <dc:format>image/svg+xml</dc:format>
        <dc:type
           rdf:resource="http://purl.org/dc/dcmitype/StillImage" />
        <dc:title></dc:title>
      </cc:Work>
    </rdf:RDF>
  </metadata>
  <g
     inkscape:label="Layer 1"
     inkscape:groupmode="layer"
     id="layer1">
    <rect
       style="fill:#ffffff;fill-opacity:1;stroke:#000000;stroke-width:1.07168722;stroke-miterlimit:4;stroke-dasharray:none;stroke-opacity:1"
       id="rect928"
       width="168.26166"
       height="38.816872"
       x="15.379859"
       y="121.57585"
       ry="0.17720751" />
    <g
       id="g4666"
       transform="translate(-14.686543,1.6947421)">
      <path
         inkscape:connector-curvature="0"
         id="path4660"
         d="m 55.765296,154.79746 c -0.472366,-0.0731 -0.832376,-0.31436 -0.835345,-0.5598 -6.83e-4,-0.0565 0.03565,-0.25793 0.08075,-0.44768 0.105996,-0.44601 0.108419,-1.6531 0.0053,-2.65225 -0.129963,-1.25956 -0.137841,-1.71791 -0.053,-3.08351 0.06993,-1.12564 0.07281,-1.39594 0.02211,-2.07983 -0.06865,-0.92615 -0.0389,-1.06002 0.297513,-1.3386 0.303735,-0.25152 0.577169,-0.3714 1.399477,-0.61354 2.204984,-0.64929 3.960213,-0.92161 4.754808,-0.73771 0.287403,0.0665 0.495408,0.24787 0.571606,0.49837 0.06251,0.2055 0.05847,0.9446 -0.0111,2.02875 -0.0566,0.88206 -0.148473,1.44871 -0.265619,1.63824 -0.155063,0.25088 -0.617175,0.36773 -1.448085,0.36618 -0.787463,-0.001 -0.999558,-0.1259 -1.048906,-0.61538 -0.04782,-0.47434 -0.305264,-0.70092 -0.751937,-0.6618 -0.164776,0.0144 -0.289558,0.0571 -0.401114,0.13714 l -0.161931,0.1162 v 0.48947 c 0,0.26921 -0.03228,1.01195 -0.07173,1.65054 -0.08307,1.34447 -0.05393,1.84133 0.141991,2.42111 0.254634,0.75354 0.628838,1.28859 0.913884,1.3067 0.119317,0.008 0.14311,-0.0111 0.193245,-0.15194 0.07097,-0.19931 0.152022,-0.79219 0.152022,-1.11197 0,-0.23153 -0.01016,-0.25128 -0.294777,-0.57334 -0.261288,-0.29565 -0.298409,-0.36089 -0.32674,-0.57422 -0.09089,-0.68434 0.183836,-1.27661 0.644438,-1.38932 0.100851,-0.0247 0.617672,-0.0786 1.14849,-0.1199 0.945095,-0.0735 0.968877,-0.0733 1.146042,0.008 0.121275,0.0557 0.2187,0.14706 0.295523,0.27714 l 0.114604,0.19407 -0.01566,2.52287 c -0.01401,2.2581 -0.02369,2.53646 -0.09216,2.65225 -0.117638,0.19895 -0.500242,0.35643 -0.992385,0.40848 -0.505779,0.0535 -4.760543,0.0495 -5.111348,-0.005 z m 18.79509,-0.0348 c -0.439284,-0.075 -0.684088,-0.21675 -0.825915,-0.47817 -0.09966,-0.1837 -0.207983,-1.22386 -0.162844,-1.56374 0.03559,-0.26795 0.191371,-0.54774 0.345134,-0.61986 0.201955,-0.0947 0.220186,-0.19273 0.25134,-1.35125 0.01627,-0.60485 0.05039,-1.54408 0.07583,-2.08718 0.03131,-0.66842 0.0312,-1.00163 -3.21e-4,-1.03129 -0.06483,-0.061 -0.336136,-0.0457 -0.714644,0.0403 -0.622118,0.14129 -1.028976,0.37694 -1.170507,0.67794 -0.18587,0.3953 -0.23957,4.55523 -0.07299,5.65439 0.112648,0.7433 0.06847,0.76884 -1.295559,0.74886 -0.879611,-0.0129 -0.959839,-0.0207 -1.16093,-0.11393 -0.121269,-0.0562 -0.25492,-0.16023 -0.304709,-0.23719 -0.169201,-0.26156 -0.213147,-0.92007 -0.207738,-3.1128 0.0083,-3.35674 0.152992,-4.97896 0.595332,-6.67372 0.08709,-0.33367 0.204023,-0.68313 0.259851,-0.77657 0.124961,-0.20917 0.408802,-0.37199 0.705198,-0.40451 0.263434,-0.0289 1.762613,0.17865 1.952304,0.27029 0.14946,0.0722 0.193647,0.20773 0.152303,0.4671 l -0.0305,0.19135 0.360529,-0.12378 c 1.046499,-0.3593 2.138252,-0.34449 3.457977,0.0469 0.573263,0.17002 0.840442,0.32854 0.955449,0.56689 0.117699,0.24393 0.113183,0.32166 -0.04945,0.8512 -0.449828,1.46467 -0.577061,2.68752 -0.639413,6.14546 -0.0236,1.30854 -0.05884,2.23014 -0.08964,2.34412 -0.144332,0.53401 -0.248113,0.5795 -1.354625,0.59378 -0.453832,0.006 -0.917979,-0.005 -1.031438,-0.0246 z m 3.672321,-0.007 c -0.327457,-0.052 -0.690366,-0.2407 -0.797525,-0.41467 -0.146166,-0.23729 -0.182729,-0.91509 -0.154173,-2.85799 0.0451,-3.06835 0.226574,-4.63998 0.685912,-5.94018 0.245414,-0.69467 0.496694,-0.96026 0.907994,-0.95972 0.110483,1.3e-4 0.665024,0.0572 1.232315,0.12688 1.409655,0.17306 2.435905,0.25615 3.736097,0.3025 1.198411,0.0427 1.480414,0.0907 1.689777,0.28771 0.160048,0.15056 0.157968,0.2403 -0.03884,1.67614 -0.156321,1.14043 -0.162283,1.16669 -0.289621,1.27546 -0.217079,0.18543 -0.558766,0.22627 -1.66796,0.19937 -0.959325,-0.0233 -1.361484,-0.0714 -1.451695,-0.17362 -0.02998,-0.034 -0.03006,-0.17111 -2.29e-4,-0.40311 0.0848,-0.66005 -0.04825,-0.83341 -0.639657,-0.83341 -0.365335,0 -0.521118,0.0816 -0.598477,0.31333 -0.04169,0.12493 -0.15672,1.06157 -0.204047,1.66155 -0.0237,0.30049 0.0518,0.35392 0.500136,0.35392 0.28467,0 0.370806,-0.0204 0.659272,-0.15617 l 0.331818,-0.15616 1.221498,0.007 c 0.671823,0.004 1.297749,0.0261 1.390945,0.0494 0.277589,0.0693 0.357772,0.20773 0.357494,0.61743 -1.37e-4,0.19248 -0.0134,0.53692 -0.02948,0.76541 l -0.02925,0.41543 -0.158087,0.0709 c -0.304538,0.13662 -0.756241,0.16716 -1.845824,0.12477 l -1.031437,-0.0401 -0.412576,-0.17708 c -0.226916,-0.0974 -0.507263,-0.19008 -0.622993,-0.20598 -0.180791,-0.0248 -0.228179,-0.0145 -0.336559,0.0732 -0.111391,0.0901 -0.131471,0.14732 -0.171725,0.48903 -0.066,0.56028 -0.03637,1.0239 0.07269,1.13727 0.09862,0.10252 0.426366,0.1236 0.721721,0.0464 0.186122,-0.0486 0.443461,-0.28999 0.537914,-0.50451 0.03352,-0.0761 0.105137,-0.1532 0.159155,-0.17127 0.05402,-0.0181 0.654465,-0.0278 1.334327,-0.0216 1.071099,0.01 1.254048,0.0212 1.370459,0.0853 0.192122,0.10586 0.313527,0.27757 0.34775,0.49184 0.04618,0.28916 -0.027,1.4089 -0.108282,1.65672 -0.09546,0.29104 -0.372625,0.58192 -0.678294,0.71187 l -0.242396,0.10304 -2.750501,0.006 c -1.512776,0.004 -2.861715,-0.0113 -2.997644,-0.0329 z m 8.131913,0.0197 c -0.705642,-0.0632 -1.135108,-0.17656 -1.217493,-0.32138 -0.03083,-0.0542 -0.02931,-0.20442 0.0046,-0.45842 0.02778,-0.2078 0.06774,-0.94061 0.08882,-1.62847 0.04136,-1.34975 0.07215,-1.53548 0.301501,-1.81836 0.189287,-0.23347 0.466829,-0.33121 0.871189,-0.30679 0.546895,0.033 0.838735,0.24807 1.170452,0.86248 0.215305,0.3988 0.169271,0.91079 -0.106742,1.18718 -0.07165,0.0718 -0.0844,0.11104 -0.04734,0.14591 0.08889,0.0836 0.437219,0.11865 0.780229,0.0785 0.498927,-0.0585 0.758489,-0.20669 0.940407,-0.537 0.337939,-0.61361 -0.288618,-1.41144 -1.713732,-2.18221 -0.513036,-0.27748 -1.09541,-0.78231 -1.400477,-1.21401 -0.534941,-0.757 -0.603721,-1.60494 -0.219504,-2.70612 0.138492,-0.39692 0.242532,-0.56208 0.440999,-0.70008 0.239301,-0.16639 0.490858,-0.23913 1.005768,-0.29083 0.765587,-0.0769 1.771518,-0.24625 2.961761,-0.4987 0.61049,-0.12948 1.210803,-0.23543 1.334028,-0.23543 0.424401,0 0.764045,0.17693 0.931131,0.48504 0.129895,0.23953 0.258573,0.85226 0.296076,1.40984 0.03483,0.51783 -0.04331,1.54996 -0.142434,1.88136 -0.17607,0.58864 -0.666244,0.83506 -1.273744,0.64033 -0.411744,-0.13199 -0.559207,-0.43363 -0.525192,-1.0743 0.01749,-0.32948 0.04954,-0.45537 0.212037,-0.83302 0.105286,-0.24469 0.17943,-0.46315 0.164764,-0.48547 -0.06332,-0.0964 -0.325577,-0.17798 -0.572026,-0.17798 -0.507803,0 -0.903424,0.25064 -1.127451,0.71429 -0.323869,0.67028 -0.100622,1.09846 1.258379,2.4135 1.178993,1.14086 1.511813,1.71692 1.819329,3.14898 0.178448,0.83101 0.217187,1.58313 0.09564,1.85681 -0.120022,0.27024 -0.544633,0.48398 -1.150906,0.57936 -0.264716,0.0416 -4.804839,0.0986 -5.18011,0.065 z m -23.448021,-0.0746 c -0.490874,-0.1024 -0.700201,-0.28423 -0.760151,-0.66033 -0.03819,-0.23955 0.06048,-7.09498 0.11905,-8.27162 0.10315,-2.07229 0.155998,-2.40263 0.429258,-2.68314 0.140367,-0.1441 0.17156,-0.15503 0.535717,-0.18772 0.987123,-0.0886 3.538308,-0.0324 5.120693,0.11281 0.999657,0.0918 1.315603,0.20995 1.481862,0.55435 0.115003,0.23823 0.111434,0.28907 -0.07116,1.01387 -0.196939,0.78176 -0.328562,1.49486 -0.39707,2.15123 -0.06166,0.59077 -0.121282,0.75545 -0.306051,0.84533 -0.237035,0.11532 -0.729117,0.16509 -1.338776,0.13542 -0.708112,-0.0345 -1.136919,-0.0943 -1.272754,-0.17774 -0.101546,-0.0623 -0.103132,-0.0753 -0.07333,-0.59976 0.0475,-0.83596 -0.093,-1.06392 -0.614863,-0.9976 -0.29526,0.0375 -0.434486,0.14434 -0.498266,0.38232 -0.02889,0.10778 -0.07551,0.68721 -0.1036,1.28762 -0.05948,1.27123 -0.07235,1.22663 0.352693,1.22227 0.278731,-0.003 0.52525,-0.097 0.778063,-0.29713 l 0.138803,-0.10988 h 1.106516 c 1.624577,0 1.570422,-0.0425 1.551518,1.21717 l -0.01245,0.82971 -0.206288,0.10862 c -0.204477,0.10766 -0.215942,0.10862 -1.306488,0.10862 h -1.1002 l -0.46132,-0.20485 c -0.839888,-0.37295 -0.955982,-0.29637 -1.00902,0.66562 -0.04869,0.88312 0.0039,1.02707 0.374887,1.02707 0.393143,0 0.671335,-0.2 0.812774,-0.58433 0.04861,-0.13209 0.09243,-0.17439 0.21049,-0.20317 0.08201,-0.02 0.623351,-0.0305 1.202991,-0.0233 l 1.053888,0.013 0.154082,0.15826 c 0.08474,0.087 0.176685,0.23722 0.20431,0.33374 0.02819,0.0985 0.05454,0.62507 0.06006,1.20021 0.0089,0.92956 0.0018,1.03998 -0.07684,1.18889 -0.09955,0.18854 -0.318136,0.35939 -0.566477,0.44277 -0.236759,0.0795 -5.132435,0.081 -5.512555,0.002 z m 21.24762,-13.1227 -0.320892,-0.0174 -0.0035,-8.90382 -0.0035,-8.90382 h 4.371074 4.371076 l -0.03554,0.59298 c -0.01955,0.32614 -0.03554,1.5156 -0.03554,2.64324 v 2.05026 l -0.294378,-0.34678 c -0.161908,-0.19073 -0.584797,-0.61933 -0.939754,-0.95245 -0.967557,-0.90804 -1.545797,-1.23294 -2.203994,-1.23838 -1.447567,-0.012 -2.434071,1.0505 -3.030432,3.26376 -0.177311,0.65805 -0.336219,1.42355 -0.301268,1.45129 0.03356,0.0266 2.774981,-0.0216 3.732815,-0.0657 l 0.584481,-0.0269 v 1.09728 1.09727 l -0.424036,0.0258 c -0.798476,0.0487 -2.741546,0.11159 -3.445388,0.11159 -0.571395,0 -0.714304,0.0122 -0.760948,0.0651 -0.08163,0.0925 -0.03347,1.81284 0.06455,2.30576 0.172593,0.86794 0.474426,1.41613 0.977717,1.77572 0.406402,0.29037 0.71544,0.38909 1.296593,0.41419 0.577091,0.0249 0.883205,-0.0371 1.408558,-0.28564 0.888014,-0.42003 2.616167,-1.83992 3.278179,-2.69341 0.05098,-0.0657 0.06069,0.39194 0.05915,2.78848 l -0.0018,2.86711 -0.664704,0.17499 c -1.119787,0.29481 -2.029496,0.46162 -3.346443,0.61363 -0.599073,0.0691 -1.094854,0.09 -2.383768,0.10028 -0.895059,0.007 -1.771781,0.005 -1.948271,-0.004 z m -1.922789,-0.14785 c -1.270228,-0.12589 -2.640301,-0.33055 -6.351635,-0.94882 l -1.62738,-0.2711 0.01446,-6.3419 c 0.008,-3.48804 -0.0056,-7.17638 -0.03014,-8.19631 -0.02453,-1.01993 -0.03938,-1.85951 -0.03299,-1.86574 0.0064,-0.006 1.974521,-0.024 4.373636,-0.0394 l 4.362028,-0.0281 0.0056,0.10414 c 0.009,0.16893 0.06433,5.27804 0.05731,5.29225 -0.0035,0.007 -0.177939,-0.19663 -0.387574,-0.45283 -0.504046,-0.61599 -1.482668,-1.53414 -1.935008,-1.81543 -0.60067,-0.37353 -1.182982,-0.48048 -1.799096,-0.33044 -1.120248,0.27281 -1.846314,1.20281 -2.364115,3.02811 -0.17042,0.60076 -0.363724,1.44599 -0.336543,1.47157 0.01083,0.0102 0.891489,0.0456 1.957028,0.0787 1.065539,0.0331 2.045644,0.0703 2.178012,0.0827 l 0.240669,0.0225 v 1.10245 1.10245 l -0.561561,-0.0266 c -2.123794,-0.10062 -4.020047,-0.16774 -4.08426,-0.14455 -0.06619,0.0239 -0.07583,0.11424 -0.0755,0.70797 8.53e-4,1.54339 0.23607,2.37159 0.846391,2.98014 0.479316,0.47793 1.018044,0.72482 1.801955,0.82579 0.865963,0.11154 1.738402,-0.19749 2.923755,-1.03564 0.488992,-0.34576 1.1093,-0.90866 1.397911,-1.26852 l 0.203836,-0.25416 0.01498,0.53589 c 0.0082,0.29473 6.09e-4,1.70514 -0.01695,3.13423 l -0.03194,2.59834 -0.189332,-0.006 c -0.104133,-0.003 -0.35321,-0.022 -0.553504,-0.0418 z m -27.255443,-9.19575 c 0,-4.6383 0.01547,-8.43927 0.03438,-8.4466 0.01891,-0.007 1.988956,-0.007 4.37788,-3.2e-4 l 4.3435,0.013 -0.0022,3.60959 -0.0022,3.60958 -0.154528,-0.49595 c -0.651188,-2.08996 -1.706992,-3.51958 -3.0342,-4.1085 -0.296852,-0.13172 -0.342394,-0.13927 -0.841026,-0.13934 -0.509389,-7e-5 -0.537155,0.005 -0.82279,0.14502 -0.581041,0.28521 -1.006127,0.85185 -1.233784,1.64463 -0.227089,0.79081 -0.677392,2.91938 -0.627525,2.96629 0.01087,0.0102 0.923516,-0.0127 2.028098,-0.051 1.104582,-0.0383 2.044431,-0.0695 2.088553,-0.0693 0.07438,3.1e-4 0.08022,0.0837 0.08022,1.14319 v 1.14284 l -0.355273,0.003 c -0.1954,0.002 -1.190737,0.0358 -2.211861,0.0755 l -1.856588,0.0721 0.01171,0.5822 c 0.01612,0.80122 0.08531,1.41957 0.241678,2.15975 0.32434,1.53531 0.785399,2.38518 1.793496,3.30592 0.161886,0.14786 0.360427,0.31471 0.441201,0.37077 l 0.146862,0.10194 -0.469404,0.076 c -0.483346,0.0783 -3.689092,0.65682 -3.873149,0.69899 l -0.103144,0.0236 z m 17.534444,7.71213 c -0.352981,-0.0546 -0.922752,-0.13345 -1.266158,-0.17514 l -0.624375,-0.0758 -0.119424,-0.58601 c -0.251937,-1.23624 -0.654117,-2.38769 -1.198845,-3.43232 -0.645486,-1.23786 -1.235111,-1.74658 -1.695463,-1.46281 -0.264372,0.16296 -0.492188,0.65917 -0.651793,1.41968 -0.124573,0.59359 -0.109927,1.95517 0.02758,2.56412 0.106545,0.47183 0.223007,0.77331 0.406296,1.05176 0.06002,0.0912 0.102488,0.16928 0.09436,0.17353 -0.0081,0.004 -0.427345,-0.006 -0.931604,-0.0224 -0.504258,-0.0166 -1.148907,-0.019 -1.432552,-0.005 l -0.515719,0.0247 v -7.81214 -7.81214 h 4.350055 c 3.865808,0 4.353057,0.007 4.37702,0.0661 0.04531,0.11109 0.12643,5.8298 0.111497,7.86044 l -0.01405,1.91047 -0.252129,-0.33441 c -0.873355,-1.15835 -1.812198,-1.60313 -2.371839,-1.12366 -0.307984,0.26386 -0.411916,1.09848 -0.248167,1.99287 0.27931,1.52557 0.911786,2.98253 2.223045,5.12099 0.243541,0.39718 0.442802,0.73195 0.442802,0.74393 0,0.012 -0.01547,0.0198 -0.03438,0.0174 -0.01891,-0.002 -0.323184,-0.049 -0.676165,-0.10368 z m -1.351422,-10.03404 c 0.317329,-0.13783 0.486305,-0.29663 0.632409,-0.59433 0.09504,-0.19367 0.115341,-0.30031 0.114924,-0.60377 -6.14e-4,-0.44712 -0.09011,-0.75714 -0.361739,-1.25303 -0.970259,-1.77134 -3.310168,-2.73025 -4.327314,-1.77336 -0.484479,0.45577 -0.517144,1.21499 -0.08872,2.062 0.799924,1.58148 2.843572,2.67797 4.03044,2.16249 z"
         style="fill:#000000;stroke-width:0.04446313" />
      <text
         id="text4646"
         y="137.27899"
         x="98.273819"
         style="font-style:normal;font-variant:normal;font-weight:bold;font-stretch:normal;font-size:5.64444447px;line-height:1.25;font-family:serif;-inkscape-font-specification:'serif, Bold';font-variant-ligatures:normal;font-variant-caps:normal;font-variant-numeric:normal;font-feature-settings:normal;text-align:start;letter-spacing:0px;word-spacing:0px;writing-mode:lr-tb;text-anchor:start;fill:#000000;fill-opacity:1;stroke:none;stroke-width:0.26458332"
         xml:space="preserve"><tspan
           y="137.27899"
           x="98.273819"
           id="tspan4650"
           sodipodi:role="line">A BioBricks Foundation</tspan><tspan
           y="144.33455"
           x="98.273819"
           id="tspan4652"
           sodipodi:role="line">Project</tspan></text>
    </g>
  </g>
</svg>
