<?xml version="1.0" encoding="UTF-8" standalone="no"?>
<!-- Created with Inkscape (http://www.inkscape.org/) -->

<svg
   xmlns:dc="http://purl.org/dc/elements/1.1/"
   xmlns:cc="http://creativecommons.org/ns#"
   xmlns:rdf="http://www.w3.org/1999/02/22-rdf-syntax-ns#"
   xmlns:svg="http://www.w3.org/2000/svg"
   xmlns="http://www.w3.org/2000/svg"
   xmlns:sodipodi="http://sodipodi.sourceforge.net/DTD/sodipodi-0.dtd"
   xmlns:inkscape="http://www.inkscape.org/namespaces/inkscape"
   width="793.70081"
   height="1122.5197"
   id="svg16774"
   version="1.1"
   inkscape:version="0.92.2 5c3e80d, 2017-08-06"
   sodipodi:docname="amber.svg"
   viewBox="0 0 744.09448 1052.3622">
  <defs
     id="defs16776">
    <inkscape:perspective
       sodipodi:type="inkscape:persp3d"
       inkscape:vp_x="0 : 526.1811 : 1"
       inkscape:vp_y="0 : 1000 : 0"
       inkscape:vp_z="744.09445 : 526.1811 : 1"
       inkscape:persp3d-origin="372.04723 : 350.7874 : 1"
       id="perspective16782" />
    <inkscape:perspective
       id="perspective16769"
       inkscape:persp3d-origin="0.49999999 : 0.33333334 : 1"
       inkscape:vp_z="0.99999997 : 0.50000001 : 1"
       inkscape:vp_y="0 : 1000 : 0"
       inkscape:vp_x="0 : 0.50000001 : 1"
       sodipodi:type="inkscape:persp3d" />
  </defs>
  <sodipodi:namedview
     id="base"
     pagecolor="#ffffff"
     bordercolor="#666666"
     borderopacity="1.0"
     inkscape:pageopacity="0.0"
     inkscape:pageshadow="2"
     inkscape:zoom="0.49497474"
     inkscape:cx="191.31289"
     inkscape:cy="379.35026"
     inkscape:document-units="px"
     inkscape:current-layer="g2814"
     showgrid="false"
     inkscape:window-width="1020"
     inkscape:window-height="729"
     inkscape:window-x="0"
     inkscape:window-y="18"
     inkscape:window-maximized="0" />
  <metadata
     id="metadata16779">
    <rdf:RDF>
      <cc:Work
         rdf:about="">
        <dc:format>image/svg+xml</dc:format>
        <dc:type
           rdf:resource="http://purl.org/dc/dcmitype/StillImage" />
        <dc:title />
      </cc:Work>
    </rdf:RDF>
  </metadata>
  <g
     inkscape:label="Layer 1"
     inkscape:groupmode="layer"
     id="layer1">
    <g
       id="g2814">
      <path
         id="path16183"
         d="m 624.66136,847.13055 2.8125,-0.18719 -0.0312,-0.46803 0.0937,0.46803 2.78125,-0.53043 -0.0937,-0.46793 0.15625,0.46793 2.6875,-0.87357 -0.15625,-0.46793 0.21875,0.43678 2.5625,-1.2168 -0.21875,-0.43679 0.28125,0.43679 2.375,-1.52869 -0.28125,-0.43679 0.34375,0.40554 2.15625,-1.80954 -0.3125,-0.37438 0.375,0.34324 1.9375,-2.05913 -0.375,-0.34324 0.40625,0.28084 1.65625,-2.27756 -0.3125,-0.21834 0.34375,0.18719 1.375,-2.49591 -0.40625,-0.21844 0.40625,0.15605 1.0625,-2.62071 -0.28125,-0.0938 0.28125,0.0619 0.71875,-2.7455 -0.5,-0.1248 0.5,0.0619 0.375,-2.80789 -0.5,-0.0619 h 0.5 v -1.4039 h 0.0312 V 140.91296 h -0.0312 v -1.40394 h -0.5 l 0.5,-0.0624 -0.375,-2.8079 -0.5,0.0624 0.5,-0.12479 -0.71875,-2.7455 -0.28125,0.0624 0.28125,-0.0935 -1.0625,-2.6207 -0.40625,0.15599 0.40625,-0.21839 -1.375,-2.49591 -0.34375,0.18719 0.3125,-0.21839 -1.65625,-2.27751 -0.40625,0.28079 0.375,-0.34319 -1.9375,-2.05912 -0.375,0.34318 0.3125,-0.37438 -2.15625,-1.80953 -0.34375,0.40558 0.28125,-0.43678 -2.375,-1.49755 -0.3125,0.46798 0.25,-0.49918 -2.5625,-1.21675 -0.21875,0.43678 0.15625,-0.46798 -2.6875,-0.87357 -0.15625,0.46798 0.0937,-0.46798 -2.78125,-0.53038 -0.0937,0.46798 0.0312,-0.46798 -2.8125,-0.18719 -0.0312,0.49918 v -0.49918 h -9.75 v 40.2465 c 0,0.0111 6e-5,0.0201 0,0.0311 -0.0179,3.19109 -2.64324,5.77178 -5.84375,5.77178 -3.20051,0 -5.7946,-2.58069 -5.8125,-5.77178 v -0.0311 -40.2465 H 132.9739 v 40.2465 0.0311 c -0.018,3.19109 -2.612,5.77178 -5.8125,5.77178 -3.20049,0 -5.7945,-2.58069 -5.8125,-5.77178 v -0.0311 -40.2465 h -9.75 v 0.49918 l -0.0312,-0.49918 -2.84381,0.18719 0.0312,0.46798 -0.0937,-0.46798 -2.75,0.53038 0.0937,0.46798 -0.1562,-0.46798 -2.6875,0.87357 0.1875,0.59278 -0.25,-0.56158 -2.5625,1.21675 0.3125,0.62398 -0.375,-0.59278 -2.375009,1.49755 0.25,0.43678 -0.3125,-0.40558 -2.1563,1.80953 0.31261,0.37438 -0.375,-0.34318 -1.93761,2.05912 0.375,0.34319 -0.4062,-0.28079 -1.65619,2.27751 0.31239,0.21839 -0.3437,-0.18719 -1.375,2.49591 0.4375,0.24959 -0.4688,-0.18719 -1.0312,2.6207 0.375,0.12479 -0.40619,-0.0935 -0.68761,2.7455 0.4688,0.12479 -0.4688,-0.0624 -0.375,2.8079 0.5,0.0624 h -0.5 v 1.40394 h -0.0312 v 683.25459 h 0.0312 v 1.4039 h 0.5 l -0.5,0.0619 0.375,2.80789 0.4688,-0.0619 -0.4688,0.1248 0.68761,2.7455 0.40619,-0.0938 -0.375,0.12479 1.0312,2.62071 0.4688,-0.1872 -0.4375,0.24959 1.375,2.49591 0.3437,-0.18719 -0.31239,0.21834 1.65619,2.27757 0.4062,-0.28084 -0.375,0.34323 1.93761,2.05913 0.375,-0.34324 -0.31261,0.37439 2.1563,1.80953 0.3125,-0.40554 -0.25,0.43679 2.375009,1.52869 0.34381,-0.59273 -0.28131,0.59273 2.5625,1.2168 0.25,-0.56157 -0.1875,0.59272 2.6875,0.87357 0.1562,-0.46793 -0.0937,0.46793 2.75,0.53043 0.0937,-0.46803 -0.0312,0.46803 2.84381,0.18719 0.0312,-0.49918 v 0.49918 h 9.75 v -40.27775 -0.0309 c 0.018,-3.19106 2.61201,-5.77183 5.8125,-5.77183 3.2005,0 5.7946,2.58077 5.8125,5.77183 1e-4,0.011 0,0.02 0,0.0309 v 40.27775 h 470.25001 v -40.27775 -0.0309 c 0.0179,-3.19106 2.61199,-5.77183 5.8125,-5.77183 3.20051,0 5.82582,2.58077 5.84375,5.77183 6e-5,0.011 0,0.02 0,0.0309 v 40.27775 h 9.75 v -0.49918 l 0.0312,0.49918 v 9e-4 z"
         style="color:#000000;font-style:normal;font-variant:normal;font-weight:normal;font-stretch:normal;font-size:medium;line-height:normal;font-family:'Bitstream Charter';-inkscape-font-specification:'Bitstream Charter';text-indent:0;text-align:start;text-decoration:none;text-decoration-line:none;letter-spacing:normal;word-spacing:normal;text-transform:none;writing-mode:lr-tb;direction:ltr;text-anchor:start;display:inline;overflow:visible;visibility:visible;fill:none;stroke:#000000;stroke-width:1.00031245;stroke-miterlimit:4;stroke-dasharray:none;stroke-opacity:1;marker:none;enable-background:accumulate"
         sodipodi:nodetypes="ccccccccccccccccccccccccccccccccccccccccccccccccccccccccccccccccccccccccccccccccccssccccccsccccccccccccccccccccccccccccccccccccccccccccccccccccccccccccccccccccccccccccccccccccccccsscccccsscccccc"
         inkscape:connector-curvature="0" />
      <rect
         style="fill:none;fill-opacity:1;stroke:#000000;stroke-width:1.18554068;stroke-miterlimit:4;stroke-dasharray:none;stroke-opacity:1"
         id="rect11"
         width="301.76721"
         height="451.64908"
         x="217.2309"
         y="256.71555" />
      <rect
         style="fill:none;fill-opacity:1;stroke:#000000;stroke-width:1.00031245;stroke-miterlimit:4;stroke-dasharray:none;stroke-opacity:1"
         id="rect817"
         width="559.35559"
         height="87.844208"
         x="88.436699"
         y="759.3175"
         ry="0.10691967" />
    </g>
  </g>
</svg>
